<svg id="Слой_1" data-name="Слой 1" xmlns="http://www.w3.org/2000/svg" viewBox="0 0 145.04882 127.41686">
  <defs>
    <style>
      .cls-1 {
        fill-rule: evenodd;
      }
    </style>
  </defs>
  <title>CSGO</title>
  <path class="cls-1" d="M457.39842,328.84747a79.26548,79.26548,0,0,1-14.00315-8.64567,88.83736,88.83736,0,0,1-9.83622,7.82362c17.85827,10.063,41.41418,12.78426,61.22835,8.61733A79.08281,79.08281,0,0,1,457.39842,328.84747ZM424.715,333.4396a94.66262,94.66262,0,0,0,68.34331,5.27244,6.25573,6.25573,0,0,0,1.89921-.93543c-20.69291,4.45039-45.52441,2.29606-64.063-7.96536C428.88189,331.11519,426.8126,332.33409,424.715,333.4396Z" transform="translate(-349.90866 -215.34826)"/>
  <path class="cls-1" d="M473.35748,235.47424c.02835.11339.02835.25512.05669.36851v.14173c.99213,9.07087-6.51968,18.3685-15.052,18.96378.0567.05669.25512.05669.34016.05669,7.73858-.17008,12.33071-4.11023,15.39213-9.18425a96.33012,96.33012,0,0,1-30.04725,72.4252l-.085-.085a103.42871,103.42871,0,0,1-12.24567-12.24567,80.53446,80.53446,0,0,1-8.33385-12.35906l-.36851-.68031c.34016-.822.82205-1.95591,1.10551-2.74961a30.15077,30.15077,0,0,0,9.75118,1.70079c5.21575-.68032,9.09922-7.59685,6.06615-12.52913l.11338-.45355c5.38583-1.2189,8.39055-8.3622,4.337-13.06771l.14173-.90709a8.29126,8.29126,0,0,0,.99213-13.37953l-.05669-.02834h0l-.02835-.02835a17.39071,17.39071,0,0,1,8.44724-30.95433,16.65752,16.65752,0,0,1,4.28032-.02835h0c1.389-1.61575,2.91968-3.45827,4.3937-5.10236,5.30079,3.6,8.7874,10.885,10.34646,17.77323h-.02835A12.82526,12.82526,0,0,1,473.35748,235.47424Zm-29.39528,76.989c.59528-.53858,1.16221-1.13386,1.72914-1.70079l-10.65827-9.75118,8.61732,11.62205A.85148.85148,0,0,0,443.9622,312.46322Zm3.48662-3.57165c.62362-.652,1.24724-1.36063,1.84252-2.041l-11.16851-8.92913Zm3.515-4.0252c.56693-.70866,1.13386-1.41732,1.67244-2.126l-11.65039-8.10709Zm3.23149-4.22362c.51024-.737,1.02048-1.474,1.53071-2.23937l-12.07559-7.2567Zm2.948-4.422c.48189-.76535.93543-1.53071,1.389-2.32441l-12.47244-6.37795Zm2.66456-4.59213c.4252-.7937.8504-1.5874,1.24725-2.3811l-12.84095-5.52756Zm2.3811-4.73385c.36851-.822.737-1.6441,1.07717-2.46615l-13.15276-4.64881Zm2.0693-4.87559c.31181-.8504.62362-1.67245.93543-2.52284l-13.43622-3.77008Zm1.75748-5.01733c.28346-.85039.53858-1.70078.7937-2.55118l-13.663-2.863Zm1.474-5.074c.22677-.87874.4252-1.75748.62362-2.60788l-13.88976-1.98425Zm1.13386-5.1874c.17008-.87874.34016-1.75749.48189-2.66457l-14.08819-1.02047Zm.85039-5.21575c.11339-.90709.19843-1.81418.31182-2.72126l-14.25827-.085Zm-14.82519-35.09292a11.37777,11.37777,0,1,0,12.7559,9.80788A11.36962,11.36962,0,0,0,454.64882,226.43172Z" transform="translate(-349.90866 -215.34826)"/>
  <path class="cls-1" d="M371.65039,235.47424c-.02834.11339-.02834.25512-.05669.36851v.14173c-.99213,9.07087,6.51968,18.3685,15.052,18.96378-.0567.05669-.25512.05669-.34016.05669-7.73858-.17008-12.33071-4.11023-15.39213-9.18425a96.13874,96.13874,0,0,0,30.0189,72.3685,77.708,77.708,0,0,0,20.69292-24.63307l.3685-.68031c-.3685-.8504-.822-1.95591-1.10551-2.74961A30.27342,30.27342,0,0,1,411.137,291.827c-5.21575-.68032-9.09922-7.59685-6.06615-12.52913l-.11338-.45355c-5.38583-1.2189-8.39055-8.3622-4.337-13.06771l-.14173-.90709a8.29126,8.29126,0,0,1-.99213-13.37953l.0567-.02834h0l.02834-.02835a17.39071,17.39071,0,0,0-8.44724-30.95433,16.65752,16.65752,0,0,0-4.28032-.02835h0c-1.389-1.61575-2.91968-3.45827-4.3937-5.10236-5.30079,3.6-8.7874,10.885-10.34645,17.77323h0A15.69816,15.69816,0,0,0,371.65039,235.47424Zm29.39528,76.989c-.59528-.53858-1.16221-1.13386-1.72914-1.70079l10.65827-9.75118-8.61732,11.62205A.85148.85148,0,0,1,401.04567,312.46322Zm-3.48662-3.57165c-.652-.652-1.24724-1.36063-1.84252-2.041l11.16851-8.92913Zm-3.515-4.0252c-.56693-.70866-1.13386-1.41732-1.67244-2.126l11.6504-8.10709Zm-3.23149-4.22362c-.51024-.737-1.02048-1.474-1.53071-2.23937l12.07559-7.2567Zm-2.948-4.422c-.48189-.76535-.93544-1.53071-1.389-2.32441l12.47244-6.37795ZM385.2,291.62857c-.4252-.7937-.8504-1.5874-1.24725-2.3811l12.841-5.52756Zm-2.3811-4.73385c-.36851-.822-.737-1.6441-1.07717-2.46615l13.15276-4.64881Zm-2.0693-4.87559c-.31181-.8504-.62362-1.67245-.93543-2.52284l13.43622-3.77008Zm-1.75748-5.01733c-.28346-.85039-.53858-1.70078-.7937-2.55118l13.663-2.863Zm-1.474-5.074c-.22677-.87874-.4252-1.75748-.62362-2.60788l13.88976-1.98425Zm-1.13386-5.1874c-.17008-.87874-.34016-1.75749-.48189-2.66457l14.08819-1.02047Zm-.85039-5.21575c-.11339-.90709-.19843-1.81418-.31181-2.72126l14.25826-.085Zm14.82519-35.09292a11.37777,11.37777,0,1,1-12.7559,9.80788A11.36962,11.36962,0,0,1,390.35905,226.43172Z" transform="translate(-349.90866 -215.34826)"/>
  <path class="cls-1" d="M421.88031,297.21283a80.10379,80.10379,0,0,1-34.27086,31.63464,78.92692,78.92692,0,0,1-37.33229,7.79528c23.69764,5.1874,52.92284.45354,71.348-14.93859A89.79724,89.79724,0,0,0,421.88031,297.21283Zm-71.97165,40.53543a2.13114,2.13114,0,0,0,1.04882.59527,93.23127,93.23127,0,0,0,42.548,3.34489,91.82225,91.82225,0,0,0,47.39528-21.94016,58.48328,58.48328,0,0,1-16.78111,3.91181C405.09921,339.4207,374.42835,343.27582,349.90866,337.74826Zm91.07717-19.53071a102.3828,102.3828,0,0,1-10.82835-10.99842,77.04551,77.04551,0,0,1-6.7748-9.69449c1.389,7.937,2.211,15.64724,1.389,23.66929C430.10079,321.02385,436.16693,320.2018,440.98583,318.21755Z" transform="translate(-349.90866 -215.34826)"/>
  <polygon class="cls-1" points="73.956 31.039 76.535 35.518 80.532 42.435 76.535 53.348 73.077 62.787 73.332 53.49 73.956 31.039"/>
  <polygon class="cls-1" points="72.028 62.901 68.513 53.348 64.517 42.435 68.513 35.518 71.15 30.983 71.773 53.49 72.028 62.901"/>
  <path d="M471.28819,256.13881A87.07441,87.07441,0,0,1,442.8,315.32621" transform="translate(-349.90866 -215.34826)"/>
</svg>
