<?xml version="1.0" encoding="UTF-8"?>
<!DOCTYPE svg PUBLIC "-//W3C//DTD SVG 1.1//EN" "http://www.w3.org/Graphics/SVG/1.1/DTD/svg11.dtd">
<!-- Creator: CorelDRAW X6 -->
<svg xmlns="http://www.w3.org/2000/svg" xml:space="preserve" width="297mm" height="210mm" version="1.1" style="shape-rendering:geometricPrecision; text-rendering:geometricPrecision; image-rendering:optimizeQuality; fill-rule:evenodd; clip-rule:evenodd"
viewBox="0 0 29700 21000"
 xmlns:xlink="http://www.w3.org/1999/xlink">
 <defs>
  <style type="text/css">
   <![CDATA[
    .fil4 {fill:none}
    .fil0 {fill:#FEFEFE}
    .fil1 {fill:#F5A623}
    .fil3 {fill:#FEFEFE;fill-rule:nonzero}
    .fil2 {fill:#F5A623;fill-rule:nonzero}
   ]]>
  </style>
 </defs>
 <g id="Слой_x0020_1">
  <metadata id="CorelCorpID_0Corel-Layer"/>
  <path class="fil0" d="M14398 11769c-174,-84 -340,-186 -494,-305 -110,101 -226,193 -347,276 630,355 1461,451 2160,304 -462,18 -914,-80 -1319,-275zm-1153 162c299,145 618,242 944,291 485,71 987,46 1467,-105 22,-7 52,-20 67,-33 -730,157 -1606,81 -2260,-281 -71,46 -144,89 -218,128z"/>
  <path class="fil1" d="M14961 8475c1,4 1,9 2,13l0 3 0 2c35,320 -230,648 -531,669 2,2 9,2 12,2 273,-6 435,-145 543,-324 19,965 -350,1880 -1060,2555l-3 -3c-183,-159 -319,-295 -432,-432 -113,-136 -202,-273 -294,-436l-13 -24c12,-29 29,-69 39,-97 88,39 292,66 344,60 184,-24 321,-268 214,-442l4 -16c190,-43 296,-295 153,-461l5 -32c180,-108 177,-362 35,-472l-2 -1 0 0 -1 -1c-123,-96 -209,-238 -231,-405 -44,-336 193,-643 529,-687 51,-7 102,-7 151,-1l0 0c49,-57 103,-122 155,-180 187,127 310,384 365,627l-1 0c8,27 14,54 17,83zm-1037 2716c21,-19 41,-40 61,-60l-376 -344 304 410c4,-1 7,-3 11,-6zm123 -126c22,-23 44,-48 65,-72l-394 -315 329 387zm124 -142c20,-25 40,-50 59,-75l-411 -286 352 361zm114 -149c18,-26 36,-52 54,-79l-426 -256 372 335zm104 -156c17,-27 33,-54 49,-82l-440 -225 391 307zm94 -162c15,-28 30,-56 44,-84l-453 -195 409 279zm84 -167c13,-29 26,-58 38,-87l-464 -164 426 251zm73 -172c11,-30 22,-59 33,-89l-474 -133 441 222zm62 -177c10,-30 19,-60 28,-90l-482 -101 454 191zm52 -179c8,-31 15,-62 22,-92l-490 -70 468 162zm40 -183c6,-31 12,-62 17,-94l-497 -36 480 130zm30 -184c4,-32 7,-64 11,-96l-503 -3 492 99zm-523 -1238c-220,29 -375,230 -346,450 28,220 230,375 450,346 220,-28 375,-230 346,-450 -28,-220 -230,-375 -450,-346z"/>
  <path class="fil0" d="M11373 8475c-1,4 -1,9 -2,13l0 3 0 2c-35,320 230,648 531,669 -2,2 -9,2 -12,2 -273,-6 -435,-145 -543,-324 -19,965 349,1879 1059,2553 295,-231 546,-524 730,-869l13 -24c-13,-30 -29,-69 -39,-97 -88,39 -293,66 -344,60 -184,-24 -321,-268 -214,-442l-4 -16c-190,-43 -296,-295 -153,-461l-5 -32c-180,-108 -177,-362 -35,-472l2 -1 0 0 1 -1c123,-96 209,-238 231,-405 44,-336 -193,-643 -529,-687 -51,-7 -102,-7 -151,-1l0 0c-49,-57 -103,-122 -155,-180 -187,127 -310,384 -365,627l0 0c-7,27 -13,54 -16,83zm1037 2716c-21,-19 -41,-40 -61,-60l376 -344 -304 410c-4,-1 -7,-3 -11,-6zm-123 -126c-23,-23 -44,-48 -65,-72l394 -315 -329 387zm-124 -142c-20,-25 -40,-50 -59,-75l411 -286 -352 361zm-114 -149c-18,-26 -36,-52 -54,-79l426 -256 -372 335zm-104 -156c-17,-27 -33,-54 -49,-82l440 -225 -391 307zm-94 -162c-15,-28 -30,-56 -44,-84l453 -195 -409 279zm-84 -167c-13,-29 -26,-58 -38,-87l464 -164 -426 251zm-73 -172c-11,-30 -22,-59 -33,-89l474 -133 -441 222zm-62 -177c-10,-30 -19,-60 -28,-90l482 -101 -454 191zm-52 -179c-8,-31 -15,-62 -22,-92l490 -70 -468 162zm-40 -183c-6,-31 -12,-62 -17,-94l497 -36 -480 130zm-30 -184c-4,-32 -7,-64 -11,-96l503 -3 -492 99zm523 -1238c220,29 375,230 346,450 -29,220 -230,375 -450,346 -220,-28 -375,-230 -346,-450 28,-220 230,-375 450,-346z"/>
  <path class="fil1" d="M13145 10653c-289,493 -714,877 -1209,1116 -405,195 -856,293 -1317,275 836,183 1867,16 2517,-527 41,-300 47,-571 9,-864zm-2539 1430c7,10 24,17 37,21 489,160 1005,191 1501,118 611,-91 1195,-352 1672,-774 -181,73 -404,125 -592,138 -671,556 -1753,692 -2618,497zm3213 -689c-158,-141 -279,-264 -382,-388 -90,-110 -166,-219 -239,-342 49,280 78,552 49,835 188,-6 402,-35 572,-105z"/>
  <polygon class="fil0" points="13215,8860 13306,9018 13447,9262 13306,9647 13184,9980 13193,9652 "/>
  <polygon class="fil1" points="13147,9984 13023,9647 12882,9262 13023,9018 13116,8858 13138,9652 "/>
  <path class="fil2" d="M5097 11119c-10,102 -62,161 -164,174l-331 0c-98,-10 -151,-63 -161,-164l0 -712 -347 0 0 702c0,279 226,505 505,505l341 0c279,0 505,-226 505,-505l-348 0zm-656 -786l0 -286c10,-102 63,-154 161,-164l331 0c102,13 154,72 164,177l348 0c0,-279 -226,-508 -505,-508l-341 0c-279,0 -505,229 -505,508l0 282 347 -9zm2741 704c0,-187 -68,-344 -236,-433l-655 -347c-56,-33 -82,-82 -86,-148l0 -52c10,-105 66,-164 168,-174l295 0c101,10 157,69 167,174l351 0c0,-279 -230,-505 -508,-505l-315 0c-279,0 -505,226 -505,505l0 52c0,184 75,341 236,433l656 347c55,33 85,82 88,148l0 79c-10,105 -65,164 -167,177l-325 0c-101,-13 -157,-72 -167,-177l-347 0c0,278 226,508 505,508l341 0c278,0 504,-226 504,-502l0 -85zm1751 -620l-675 0 0 331 328 0 0 377c-10,102 -66,158 -164,168l-325 0c-101,-10 -157,-66 -167,-168l0 -708 -348 0 0 702c0,272 223,505 499,505l357 0c269,0 495,-226 495,-499l0 -708zm-1003 -154l0 -210c10,-101 66,-160 167,-170l325 0c101,10 154,69 164,174l347 0c-10,-276 -226,-505 -505,-505l-341 0c-278,0 -505,229 -505,508l0 211 348 -8zm2771 -206c0,-279 -227,-505 -505,-505l-341 0c-279,0 -505,226 -505,505l0 175 347 -8 0 -174c10,-102 66,-157 167,-167l322 0c101,10 157,65 167,167l0 160 348 -8 0 -145zm-1351 360l0 699c0,278 226,508 505,508l341 0c278,0 505,-230 505,-508l0 -699 -348 0 0 708c-10,102 -66,158 -167,168l-322 0c-101,-10 -157,-66 -167,-168l0 -708 -347 0z"/>
  <path class="fil3" d="M23619 10068c0,-280 -226,-493 -505,-493l-846 0 0 730 348 5 0 -404 501 0c99,0 154,69 154,171l0 243 348 5 0 -257zm-1351 349l0 1181 348 0 0 -473 411 0 236 472 377 0 -274 -540c151,-87 253,-251 253,-438l0 -202 -348 0 0 208c0,103 -58,168 -160,168l-495 0 0 -376 -348 0zm-5466 1181l0 -332 -836 0 0 -518 810 0 0 -331 -810 0 -347 0 0 1181 1183 0zm-836 -1390l0 -302 836 0 0 -331 -1183 0 0 627 347 6zm2597 -633l-380 0 -328 624 -331 -624 -381 0 522 985 -558 1038 394 0 354 -680 357 680 387 0 -554 -1038 518 -985zm1682 493c0,-280 -226,-493 -505,-493l-846 0 0 682 348 5 0 -356 501 0c99,0 154,69 154,171l0 194 348 5 0 -208zm-1351 349l0 1181 348 0 0 -473 498 0c279,0 505,-227 505,-506l0 -202 -348 0 0 208c0,103 -58,168 -160,168l-495 0 0 -376 -348 0zm2941 1181l0 -332 -836 0 0 -518 810 0 0 -331 -810 0 -347 0 0 1181 1183 0zm-836 -1311l0 -381 836 0 0 -331 -1183 0 0 707 347 5zm4312 -381l0 -331 -1351 0 0 331 501 0 0 431 348 5 0 -436 502 0zm-850 511l0 1181 348 0 0 -1181 -348 0z"/>
  <path class="fil4" d="M14888 9204c-53,804 -410,1553 -1005,2088"/>
 </g>
</svg>
