<svg id="Слой_1" data-name="Слой 1" xmlns="http://www.w3.org/2000/svg" viewBox="0 0 145.04882 127.41686">
  <defs>
    <style>
      .cls-1 {
        fill: #fefefe;
      }

      .cls-1, .cls-2 {
        fill-rule: evenodd;
      }

      .cls-2 {
        fill: #f5a623;
      }

      .cls-3 {
        fill: none;
      }
    </style>
  </defs>
  <title>CSGO</title>
  <path class="cls-1" d="M408.13228,333.60945a79.26548,79.26548,0,0,1-14.00315-8.64567,88.83853,88.83853,0,0,1-9.83622,7.82362c17.85827,10.063,41.41418,12.78425,61.22835,8.61732A79.08268,79.08268,0,0,1,408.13228,333.60945Zm-32.68346,4.59212a94.6626,94.6626,0,0,0,68.3433,5.27244,6.25522,6.25522,0,0,0,1.89922-.93543c-20.69292,4.4504-45.52441,2.29606-64.063-7.96535C379.61575,335.87716,377.54646,337.09606,375.44882,338.20157Z" transform="translate(-300.64252 -220.11024)"/>
  <path class="cls-2" d="M424.09134,240.23622c.02834.11339.02834.25512.05669.3685v.14174c.99213,9.07086-6.51969,18.3685-15.052,18.96378.05669.05669.25512.05669.34016.05669,7.73858-.17008,12.33071-4.11024,15.39212-9.18425a96.33005,96.33005,0,0,1-30.04724,72.42519l-.085-.085a103.42721,103.42721,0,0,1-12.24567-12.24567,80.53513,80.53513,0,0,1-8.33386-12.35905l-.3685-.68032c.34016-.822.822-1.9559,1.10551-2.7496a30.151,30.151,0,0,0,9.75118,1.70079c5.21575-.68032,9.09922-7.59686,6.06614-12.52914l.11339-.45354c5.38583-1.2189,8.39055-8.36221,4.337-13.06772l.14173-.90708a8.29126,8.29126,0,0,0,.99213-13.37953l-.0567-.02835h0l-.02834-.02835a17.39071,17.39071,0,0,1,8.44724-30.95433,16.658,16.658,0,0,1,4.28032-.02834h0c1.389-1.61575,2.91968-3.45827,4.3937-5.10236,5.30078,3.6,8.7874,10.885,10.34645,17.77322h-.02834A12.82537,12.82537,0,0,1,424.09134,240.23622Zm-29.39528,76.989c.59528-.53859,1.16221-1.13386,1.72914-1.70079l-10.65827-9.75118,8.61732,11.622A.8513.8513,0,0,0,394.69606,317.2252Zm3.48662-3.57166c.62362-.652,1.24724-1.36063,1.84252-2.04094l-11.16851-8.92914Zm3.515-4.02519c.56693-.70867,1.13385-1.41733,1.67244-2.126l-11.6504-8.10709Zm3.23149-4.22363c.51024-.737,1.02047-1.474,1.53071-2.23937l-12.07559-7.25669Zm2.948-4.422c.48189-.76536.93544-1.53071,1.389-2.32441l-12.47244-6.378Zm2.66457-4.59213c.4252-.7937.85039-1.5874,1.24724-2.3811L398.948,288.48189Zm2.3811-4.73386c.36851-.82205.737-1.64409,1.07717-2.46614l-13.15276-4.64882Zm2.06929-4.87559c.31182-.85039.62363-1.67244.93544-2.52283l-13.43622-3.77008Zm1.75748-5.01732c.28347-.8504.53859-1.70079.79371-2.55118l-13.663-2.863Zm1.474-5.074c.22677-.87874.4252-1.75748.62362-2.60787l-13.88976-1.98425Zm1.13386-5.1874c.17008-.87874.34016-1.75748.48189-2.66457l-14.08819-1.02047Zm.85039-5.21575c.11339-.90708.19843-1.81417.31181-2.72126l-14.25826-.085ZM405.38268,231.1937a11.37777,11.37777,0,1,0,12.7559,9.80787A11.3696,11.3696,0,0,0,405.38268,231.1937Z" transform="translate(-300.64252 -220.11024)"/>
  <path class="cls-1" d="M322.38425,240.23622c-.02835.11339-.02835.25512-.05669.3685v.14174c-.99213,9.07086,6.51968,18.3685,15.052,18.96378-.0567.05669-.25512.05669-.34016.05669-7.73858-.17008-12.33071-4.11024-15.39213-9.18425a96.13874,96.13874,0,0,0,30.0189,72.3685,77.70788,77.70788,0,0,0,20.69291-24.63307l.36851-.68032c-.36851-.85039-.822-1.9559-1.10551-2.7496a30.27375,30.27375,0,0,1-9.75119,1.70079c-5.21574-.68032-9.09921-7.59686-6.06614-12.52914l-.11338-.45354c-5.38583-1.2189-8.39055-8.36221-4.337-13.06772l-.14173-.90708a8.29125,8.29125,0,0,1-.99213-13.37953l.05669-.02835h0l.02835-.02835a17.39071,17.39071,0,0,0-8.44724-30.95433,16.658,16.658,0,0,0-4.28032-.02834h0c-1.389-1.61575-2.91968-3.45827-4.3937-5.10236-5.30079,3.6-8.7874,10.885-10.34646,17.77322h0A15.69955,15.69955,0,0,0,322.38425,240.23622Zm29.39528,76.989c-.59528-.53859-1.16221-1.13386-1.72914-1.70079l10.65827-9.75118-8.61732,11.622A.8513.8513,0,0,1,351.77953,317.2252Zm-3.48662-3.57166c-.652-.652-1.24724-1.36063-1.84252-2.04094l11.16851-8.92914Zm-3.515-4.02519c-.56693-.70867-1.13386-1.41733-1.67244-2.126l11.65039-8.10709Zm-3.23149-4.22363c-.51024-.737-1.02048-1.474-1.53071-2.23937l12.07559-7.25669Zm-2.948-4.422c-.48189-.76536-.93543-1.53071-1.389-2.32441l12.47244-6.378Zm-2.66456-4.59213c-.4252-.7937-.8504-1.5874-1.24725-2.3811l12.841-5.52756Zm-2.38111-4.73386c-.3685-.82205-.737-1.64409-1.07716-2.46614l13.15276-4.64882Zm-2.06929-4.87559c-.31181-.85039-.62362-1.67244-.93543-2.52283l13.43622-3.77008Zm-1.75748-5.01732c-.28346-.8504-.53858-1.70079-.7937-2.55118l13.663-2.863Zm-1.474-5.074c-.22677-.87874-.4252-1.75748-.62362-2.60787l13.88976-1.98425Zm-1.13386-5.1874c-.17008-.87874-.34016-1.75748-.48189-2.66457l14.08819-1.02047Zm-.85039-5.21575c-.11339-.90708-.19843-1.81417-.31182-2.72126l14.25827-.085Zm14.82519-35.09291a11.37777,11.37777,0,1,1-12.7559,9.80787A11.36961,11.36961,0,0,1,341.09291,231.1937Z" transform="translate(-300.64252 -220.11024)"/>
  <path class="cls-2" d="M372.61417,301.9748a80.10381,80.10381,0,0,1-34.27086,31.63465,78.92679,78.92679,0,0,1-37.33229,7.79527c23.69764,5.1874,52.92284.45355,71.348-14.93858A89.79692,89.79692,0,0,0,372.61417,301.9748Zm-71.97165,40.53543a2.13107,2.13107,0,0,0,1.04882.59528,93.23139,93.23139,0,0,0,42.548,3.34488,91.82224,91.82224,0,0,0,47.39527-21.94015,58.48347,58.48347,0,0,1-16.7811,3.91181C355.83307,344.18268,325.1622,348.03779,300.64252,342.51023Zm91.07716-19.5307a102.38358,102.38358,0,0,1-10.82834-10.99843,77.0459,77.0459,0,0,1-6.77481-9.69449c1.389,7.937,2.211,15.64725,1.389,23.66929C380.83464,325.78583,386.90079,324.96378,391.71968,322.97953Z" transform="translate(-300.64252 -220.11024)"/>
  <polygon class="cls-1" points="73.956 31.039 76.535 35.518 80.532 42.435 76.535 53.348 73.077 62.787 73.332 53.49 73.956 31.039"/>
  <polygon class="cls-2" points="72.028 62.901 68.513 53.348 64.517 42.435 68.513 35.518 71.15 30.983 71.773 53.49 72.028 62.901"/>
  <path class="cls-3" d="M422.02205,260.90079a87.07447,87.07447,0,0,1-28.48819,59.1874" transform="translate(-300.64252 -220.11024)"/>
</svg>
